<svg width="113" height="112" viewBox="0 0 113 112" fill="none" xmlns="http://www.w3.org/2000/svg">
<g clip-path="url(#clip0_1_5708)">
<path d="M12.0974 53.7049C11.4475 54.5039 10.5818 55.0996 9.60334 55.4211C8.4626 55.7834 7.25467 55.8829 6.07003 55.7121V55.7121C4.90283 55.5988 3.77725 55.2189 2.78018 54.6016C1.91993 54.057 1.23532 53.2755 0.808648 52.351C0.445911 51.4603 0.292093 50.4983 0.359004 49.5389C0.425915 48.5795 0.711773 47.6482 1.19464 46.8165C1.59035 46.1783 2.13168 45.6431 2.77424 45.2547C3.41154 44.8729 4.12142 44.6282 4.8586 44.5361H5.03081L4.83485 46.1692H4.7339C3.97234 46.3269 3.27659 46.7121 2.73861 47.2737C2.21158 47.8693 1.89085 48.619 1.82411 49.4115C1.71023 50.1833 1.82372 50.9716 2.15071 51.68C2.4879 52.3609 3.01887 52.927 3.67687 53.3071C4.46314 53.7566 5.33515 54.0358 6.2363 54.1266V54.1266C7.15913 54.2595 8.09953 54.1988 8.99763 53.9484C9.75191 53.751 10.4265 53.3247 10.9284 52.7281C11.4304 52.1315 11.7351 51.3939 11.8005 50.617C11.8943 49.9425 11.8209 49.2553 11.5867 48.6158C11.3722 48.0362 10.9974 47.5296 10.506 47.1549C9.98654 46.7654 9.37052 46.5251 8.72447 46.4602H8.50475L8.08313 49.9757L6.7173 49.8094L7.31114 44.738L8.49881 44.8805C9.50874 44.955 10.4852 45.2751 11.3433 45.8129C12.0763 46.3107 12.6415 47.0187 12.9644 47.8438C13.3065 48.7775 13.4086 49.7821 13.2614 50.7655C13.1634 51.8367 12.7594 52.8571 12.0974 53.7049V53.7049Z" fill="#231F20"/>
<path d="M15.0477 40.0704C14.1899 40.6314 13.1866 40.9287 12.1617 40.9255C10.9745 40.9109 9.80642 40.6244 8.74712 40.0882V40.0882C7.66313 39.6075 6.70264 38.8867 5.93828 37.9801C5.28031 37.1891 4.86754 36.2232 4.75061 35.201C4.68377 34.1292 4.88942 33.0579 5.34838 32.087C5.80735 31.1161 6.50468 30.2772 7.37536 29.6486C8.2307 29.0872 9.23233 28.7898 10.2555 28.7935C11.44 28.8087 12.6056 29.093 13.6641 29.6249V29.6249C14.7501 30.1049 15.7127 30.8259 16.4789 31.733C17.1378 32.5165 17.551 33.477 17.6665 34.4943C17.7313 35.569 17.5243 36.6427 17.0645 37.6163C16.6047 38.5898 15.907 39.4318 15.0358 40.0645L15.0477 40.0704ZM16.1641 34.7259C16.0485 33.9631 15.712 33.2509 15.1962 32.6772C14.5855 31.9973 13.839 31.4531 13.0049 31.0798V31.0798C12.1861 30.6689 11.2895 30.4361 10.3742 30.3969C9.5941 30.3727 8.8239 30.5769 8.15815 30.9843C7.4924 31.3917 6.96007 31.9845 6.62649 32.6902C6.29291 33.3958 6.17259 34.1835 6.2803 34.9565C6.38801 35.7295 6.71907 36.4543 7.23284 37.0419C7.84205 37.7274 8.59133 38.2742 9.43004 38.6452C10.2494 39.0529 11.1462 39.2816 12.0607 39.3162C12.842 39.3561 13.6167 39.1555 14.2803 38.7414C14.944 38.3273 15.4647 37.7196 15.7722 37.0003C16.1337 36.2984 16.2705 35.5023 16.1641 34.72V34.7259Z" fill="#231F20"/>
<path d="M12.2148 21.0615L15.1128 17.9914C15.8533 17.1733 16.792 16.5598 17.8385 16.2099C18.8053 15.9092 19.8407 15.9092 20.8076 16.2099C21.9239 16.5615 22.9412 17.1719 23.7768 17.9914V17.9914C24.6469 18.7693 25.3239 19.7391 25.7543 20.824C26.1126 21.7731 26.1727 22.809 25.9265 23.7931C25.6327 24.8652 25.0636 25.8417 24.2756 26.6257L21.3777 29.6958L12.2148 21.0615ZM23.1414 25.7172C23.7382 25.1246 24.1683 24.3851 24.3885 23.5734C24.5676 22.834 24.5095 22.057 24.2222 21.3525C23.8667 20.5176 23.3314 19.7715 22.6545 19.1672V19.1672C22.0104 18.5221 21.2317 18.0273 20.3741 17.7182C19.6527 17.4703 18.8715 17.4558 18.1413 17.6766C17.3453 17.9437 16.6343 18.4171 16.0807 19.0484L14.317 20.8715L21.3955 27.5521L23.1414 25.7172Z" fill="#231F20"/>
<path d="M31.7705 5.57428L33.1838 4.90918L38.5284 16.2633L37.115 16.9284L31.7705 5.57428Z" fill="#231F20"/>
<path d="M44.3483 13.8579C43.6672 13.7579 43.0253 13.477 42.4896 13.0444C41.9704 12.6164 41.5935 12.0406 41.4089 11.3935L41.3732 11.2747L42.8994 10.9244L42.941 11.0372C43.0888 11.4188 43.3473 11.7476 43.6833 11.9814C44.0542 12.2284 44.4807 12.3794 44.9244 12.4208C45.4633 12.4753 46.0076 12.4371 46.5337 12.308C47.0569 12.2022 47.5561 12.0009 48.0064 11.7142C48.3655 11.4824 48.6533 11.1556 48.8377 10.77C49.0017 10.3961 49.0372 9.97848 48.9387 9.58231V9.58231C48.8958 9.33238 48.7965 9.09552 48.6483 8.88973C48.5001 8.68393 48.307 8.51462 48.0836 8.39464C47.4529 8.12388 46.7672 8.00587 46.0824 8.05022H44.6572C43.6456 8.11923 42.6342 7.91407 41.7295 7.45638C41.3778 7.24158 41.0754 6.95492 40.8421 6.61518C40.6087 6.27543 40.4498 5.89026 40.3756 5.48485V5.48485C40.2249 4.84905 40.2789 4.18189 40.53 3.57864C40.7995 2.9597 41.2301 2.42443 41.7771 2.02873C42.4111 1.56625 43.1355 1.2425 43.903 1.07859C44.6345 0.899955 45.3958 0.879714 46.1358 1.01921C46.7927 1.14467 47.4062 1.43711 47.9173 1.86839C48.4123 2.29414 48.7716 2.85573 48.9506 3.48363L48.9862 3.60833L47.4601 3.9587L47.4185 3.84587C47.2776 3.46698 47.0352 3.13417 46.7178 2.88386C46.3911 2.64094 46.0098 2.48188 45.6073 2.42066C45.1316 2.35672 44.6481 2.38292 44.1821 2.49786C43.6931 2.60697 43.2295 2.80853 42.8163 3.09169C42.475 3.31421 42.2017 3.62654 42.0265 3.99432C41.871 4.34525 41.8355 4.73762 41.9255 5.11074V5.11074C41.9732 5.34677 42.0746 5.56866 42.2218 5.75917C42.3691 5.94969 42.5583 6.10372 42.7747 6.20933C43.3813 6.47636 44.0431 6.59446 44.7047 6.55375H46.1299C47.1665 6.47984 48.204 6.68489 49.1347 7.14759C49.4866 7.37218 49.7877 7.66777 50.0188 8.01544C50.2499 8.36311 50.4059 8.7552 50.4767 9.16662C50.646 9.83183 50.6045 10.5332 50.358 11.1738C50.0956 11.8152 49.6519 12.3662 49.0812 12.7593C47.6793 13.6807 45.9957 14.0743 44.3305 13.8698L44.3483 13.8579Z" fill="#231F20"/>
<path d="M67.1501 0.88916L68.2843 1.12076L67.9043 2.96164L67.5124 2.8785L61.6571 12.558L60.0479 12.2255L67.1501 0.88916ZM63.6465 7.95579L69.0979 9.07814L69.3414 10.4855L62.8626 9.1494L63.6465 7.95579ZM67.548 2.88445L67.9281 1.04355L68.6703 1.19795L70.7013 14.4345L69.092 14.102L67.548 2.88445Z" fill="#231F20"/>
<path d="M79.2779 4.57129L80.6675 5.28982L75.5487 15.1891L80.9229 17.9682L80.2756 19.2212L73.5059 15.7176L79.2779 4.57129Z" fill="#231F20"/>
<path d="M84.5145 22.2193C84.2088 21.601 84.0755 20.9117 84.1286 20.224C84.1866 19.5543 84.4476 18.9183 84.8768 18.4009L84.954 18.3L86.106 19.3629L86.0348 19.4639C85.8057 19.8021 85.6836 20.2015 85.6844 20.61C85.6901 21.0532 85.8064 21.488 86.0229 21.8748C86.2838 22.3516 86.6253 22.7796 87.0324 23.1397C87.4152 23.5096 87.8645 23.8038 88.3567 24.0067C88.7515 24.1748 89.1858 24.2283 89.6096 24.1611C90.0077 24.0851 90.368 23.8756 90.631 23.5673V23.5673C90.8072 23.3898 90.941 23.1747 91.0222 22.9382C91.1035 22.7016 91.1301 22.4498 91.1002 22.2015C90.9701 21.5293 90.6809 20.8981 90.2569 20.3606L89.4374 19.1729C88.8093 18.3721 88.4111 17.4155 88.2854 16.4056C88.2624 15.9942 88.3267 15.5826 88.4741 15.1977C88.6215 14.8129 88.8486 14.4636 89.1405 14.1728V14.1728C89.5756 13.6872 90.1537 13.3524 90.7914 13.2167C91.4558 13.0873 92.1428 13.1386 92.7807 13.3652C93.5176 13.6182 94.1932 14.0228 94.7641 14.5529C95.3245 15.0469 95.7738 15.654 96.0824 16.3344C96.3513 16.9441 96.4577 17.6131 96.3912 18.2762C96.3209 18.9303 96.0608 19.5496 95.643 20.0577L95.5599 20.1646L94.4078 19.1016L94.4791 19.0007C94.7125 18.6703 94.8502 18.2819 94.877 17.8783C94.8936 17.4679 94.8079 17.0597 94.6275 16.6907C94.4111 16.2624 94.1148 15.8794 93.7546 15.5624C93.3949 15.2153 92.9714 14.9411 92.5076 14.7548C92.1306 14.6053 91.7209 14.5581 91.3199 14.6182C90.9448 14.6895 90.6042 14.8838 90.3519 15.1704V15.1704C90.1853 15.3444 90.0607 15.5542 89.9877 15.7837C89.9146 16.0132 89.895 16.2564 89.9303 16.4947C90.0557 17.1449 90.3347 17.7556 90.7439 18.2762L91.5634 19.4639C92.2029 20.2796 92.6129 21.2514 92.751 22.2787C92.7652 22.6954 92.6929 23.1106 92.5385 23.4979C92.3842 23.8853 92.1512 24.2365 91.8543 24.5293V24.5293C91.4004 25.0453 90.7995 25.41 90.1322 25.5744C89.4545 25.72 88.7492 25.6663 88.1013 25.42C86.5515 24.7909 85.276 23.6311 84.5027 22.148L84.5145 22.2193Z" fill="#231F20"/>
<path d="M93.3039 31.2521C93.3244 30.2276 93.6466 29.232 94.2302 28.3898C94.9103 27.4084 95.8061 26.5958 96.8491 26.0145V26.0145C97.8567 25.39 98.9946 25.006 100.175 24.8921C101.201 24.7973 102.233 25.0036 103.144 25.486C104.081 26.0187 104.854 26.7995 105.377 27.7425C105.943 28.6596 106.241 29.717 106.238 30.7948C106.217 31.8175 105.895 32.8113 105.311 33.6512C104.628 34.6218 103.732 35.424 102.692 35.9968V35.9968C101.682 36.6208 100.543 37.0066 99.361 37.1251C98.3345 37.222 97.3021 37.0156 96.3918 36.5313C95.4642 35.9765 94.6931 35.1948 94.1508 34.2599C93.6085 33.3249 93.313 32.2674 93.292 31.1868L93.3039 31.2521ZM97.0807 35.2011C97.7768 35.5339 98.5539 35.6596 99.3194 35.5633C100.225 35.4439 101.095 35.1343 101.873 34.6548V34.6548C102.676 34.2133 103.377 33.606 103.928 32.8733C104.388 32.2438 104.655 31.4937 104.695 30.7148C104.736 29.9359 104.548 29.1621 104.156 28.4883C103.763 27.8144 103.182 27.2698 102.485 26.9211C101.787 26.5724 101.003 26.4348 100.228 26.5252C99.3284 26.6363 98.4624 26.9357 97.6864 27.404V27.404C96.8845 27.8453 96.186 28.4527 95.6376 29.1855C95.1782 29.8085 94.9081 30.5508 94.8597 31.3234C94.8493 32.1088 95.0533 32.8823 95.4499 33.5603C95.8465 34.2384 96.4206 34.7954 97.1103 35.1714L97.0807 35.2011Z" fill="#231F20"/>
<path d="M112.622 51.2993L112.705 52.4514L110.835 52.588L110.805 52.1901L99.8844 49.1912L99.7656 47.5522L112.622 51.2993ZM110.805 52.2257L112.682 52.0892L112.735 52.8433L100.555 58.4075L100.437 56.7686L110.805 52.2257ZM104.867 49.8504L105.27 55.4027L103.982 55.9966L103.501 49.405L104.867 49.8504Z" fill="#231F20"/>
<path d="M18.2554 76.2173L20.8445 80C21.4969 80.9025 21.906 81.9578 22.0322 83.0642C22.1347 84.0643 21.9274 85.0718 21.4383 85.9502C20.8551 86.9578 20.041 87.8126 19.063 88.4443V88.4443C18.1116 89.1301 17.0138 89.5855 15.8563 89.7745C14.8425 89.9298 13.8055 89.768 12.8871 89.3113C11.8982 88.7921 11.0612 88.0247 10.4583 87.0845L7.86328 83.3017L18.2554 76.2173ZM11.9132 85.8315C12.3147 86.4623 12.8789 86.9731 13.5463 87.3101C14.1599 87.6019 14.8509 87.6893 15.5178 87.5595C16.3308 87.3984 17.0988 87.062 17.7684 86.5738V86.5738C18.4543 86.1321 19.0358 85.5465 19.4727 84.8576C19.8256 84.2765 19.9875 83.5995 19.9359 82.9217C19.8546 82.1855 19.5823 81.4834 19.1461 80.8848L17.9585 79.1508L10.7196 84.1093L11.9132 85.8315Z" fill="#231F20"/>
<path d="M26.5694 87.1318L32.8938 92.2269L31.7061 93.6997L27.1276 90.006L25.0017 92.6426L29.3307 96.1284L28.2084 97.5418L23.8793 94.05L21.6287 96.841L26.2072 100.535L25.0195 102.001L18.707 96.8826L26.5694 87.1318Z" fill="#231F20"/>
<path d="M32.7861 106.122C32.2659 105.629 31.8902 105.002 31.6994 104.311C31.5284 103.633 31.5656 102.919 31.8063 102.262L31.8479 102.138L33.8194 102.969V103.07C33.7353 103.416 33.7602 103.779 33.8907 104.109C34.0345 104.474 34.2648 104.798 34.5617 105.053C34.9145 105.362 35.3158 105.611 35.7494 105.79C36.1751 105.981 36.6317 106.093 37.0974 106.122C37.4659 106.149 37.8343 106.07 38.1604 105.897C38.4557 105.727 38.6857 105.464 38.8136 105.148C38.9053 104.955 38.9484 104.741 38.939 104.527C38.9297 104.313 38.8683 104.104 38.7601 103.919C38.407 103.398 37.9476 102.956 37.4121 102.625L36.2779 101.847C35.3982 101.307 34.685 100.534 34.2173 99.6139C34.0482 99.2262 33.9639 98.8068 33.97 98.3838C33.9762 97.9608 34.0726 97.5441 34.2529 97.1614V97.1614C34.5135 96.5162 34.9733 95.9711 35.5653 95.6055C36.1773 95.2402 36.8775 95.0492 37.5903 95.0533C39.2459 95.0766 40.8287 95.7382 42.0084 96.9001C42.497 97.392 42.842 98.008 43.0061 98.6816C43.158 99.3412 43.1126 100.031 42.8754 100.665L42.8279 100.808L40.8564 99.9762V99.8633C40.9561 99.5302 40.9561 99.1751 40.8564 98.8419C40.7379 98.5008 40.5334 98.196 40.2625 97.9571C39.9502 97.6686 39.588 97.4392 39.1936 97.2802C38.8008 97.1032 38.3772 97.0043 37.9466 96.9892C37.6013 96.9691 37.2575 97.0474 36.9549 97.2148C36.6831 97.3769 36.4739 97.6259 36.361 97.9215V97.9215C36.2785 98.1113 36.2424 98.3181 36.2558 98.5247C36.2692 98.7313 36.3318 98.9316 36.4382 99.1092C36.7686 99.6127 37.2067 100.037 37.7209 100.35L38.8551 101.128C39.7628 101.676 40.5071 102.458 41.0108 103.391C41.1748 103.785 41.2533 104.21 41.241 104.637C41.2288 105.063 41.126 105.483 40.9395 105.867C40.6734 106.534 40.2118 107.106 39.6153 107.506C38.9955 107.898 38.2762 108.104 37.5428 108.1C35.7785 108.018 34.0982 107.323 32.7921 106.134L32.7861 106.122Z" fill="#231F20"/>
<path d="M47.8991 98.2183L50.1082 98.6043L47.9288 110.968L45.7197 110.576L47.8991 98.2183Z" fill="#231F20"/>
<path d="M57.1341 111.134C56.2077 110.661 55.4429 109.923 54.937 109.014C54.3582 107.958 54.0349 106.78 53.9928 105.576V105.576C53.8819 104.393 54.0529 103.2 54.4916 102.096C54.8751 101.133 55.5366 100.306 56.3919 99.7209C57.3096 99.1272 58.3699 98.7909 59.462 98.747C60.3564 98.6681 61.2572 98.7898 62.0986 99.1033C62.8262 99.3769 63.4779 99.8204 63.9995 100.397C64.5211 100.973 64.8976 101.666 65.0975 102.417L65.139 102.565L62.8706 102.708L62.835 102.619C62.5836 102 62.1457 101.475 61.582 101.116C60.9811 100.766 60.2849 100.614 59.5926 100.683C58.9087 100.709 58.2476 100.936 57.6924 101.336C57.1597 101.746 56.7624 102.307 56.5522 102.945C56.2929 103.731 56.1979 104.562 56.2731 105.386V105.386C56.3009 106.232 56.5031 107.063 56.8669 107.827C57.1694 108.461 57.6529 108.992 58.2565 109.353C58.8609 109.694 59.5552 109.841 60.2459 109.774C60.8237 109.751 61.3877 109.591 61.8908 109.305C62.3438 109.048 62.7144 108.667 62.9597 108.207C63.211 107.726 63.3261 107.186 63.2922 106.645V106.449L60.1865 106.651L60.0736 104.905L65.3706 104.567L65.4538 105.92C65.5523 106.933 65.3951 107.954 64.9965 108.89C64.6246 109.713 64.0144 110.406 63.2447 110.879C62.3183 111.396 61.2835 111.689 60.2234 111.735C59.1633 111.78 58.1073 111.577 57.1401 111.14L57.1341 111.134Z" fill="#231F20"/>
<path d="M67.9473 97.85L69.8119 97.084L80.6197 104.062L77.989 103.242L78.8619 102.88L75.5187 94.7384L77.5793 93.8892L82.3299 105.505L80.4772 106.265L69.6753 99.2574L72.306 100.071L71.4212 100.433L74.7764 108.604L72.7454 109.46L67.9473 97.85Z" fill="#231F20"/>
<path d="M80.584 91.8761L86.8668 86.7275L88.0544 88.1884L83.5056 91.9117L85.6494 94.5305L89.9488 91.0091L91.0949 92.4105L86.7955 95.932L89.0639 98.7052L93.6127 94.9759L94.8004 96.4367L88.5117 101.585L80.584 91.8761Z" fill="#231F20"/>
<path d="M89.2422 84.2095L92.0867 80.0883C92.522 79.422 93.1052 78.8652 93.791 78.4612C94.3826 78.1193 95.063 77.9621 95.7447 78.0098C96.4736 78.0737 97.1715 78.3343 97.7637 78.764C98.4221 79.1952 98.9337 79.8166 99.2305 80.5455C99.5126 81.2418 99.5605 82.0109 99.3671 82.7368L105.068 83.3306L103.625 85.4743L98.3576 84.833C98.3456 84.8474 98.3356 84.8634 98.3279 84.8805L98.2922 84.928L96.9799 86.8283L100.84 89.5005L99.569 91.3474L89.2422 84.2095ZM96.962 83.7403C97.3355 83.2621 97.5081 82.6572 97.443 82.0539C97.3902 81.7696 97.2777 81.4999 97.1129 81.2624C96.9481 81.0249 96.7347 80.8251 96.487 80.6762C96.2589 80.5 95.9953 80.3753 95.7144 80.3107C95.4335 80.2462 95.142 80.2432 94.8599 80.302C94.2661 80.457 93.7553 80.8358 93.4347 81.3591L92.0213 83.4078L95.5368 85.8366L96.962 83.7403Z" fill="#231F20"/>
<circle cx="105.156" cy="69.0876" r="1.26293" fill="#231F20"/>
<circle cx="6.6477" cy="67.8249" r="1.26293" fill="#231F20"/>
</g>
<defs>
<clipPath id="clip0_1_5708">
<rect width="112.401" height="110.833" fill="white" transform="translate(0.333008 0.88916)"/>
</clipPath>
</defs>
</svg>
