<svg width="28" height="28" viewBox="0 0 28 28" fill="none" xmlns="http://www.w3.org/2000/svg">
<path d="M8.76473 27.5811C7.1386 27.5811 5.70917 27.3582 4.47646 26.9123C3.26997 26.4402 2.03726 25.8238 0.77832 25.0632C0.935688 24.0666 1.02749 23.0699 1.05371 22.0732C1.10617 21.0766 1.1324 20.2111 1.1324 19.4767C1.4209 19.398 1.76187 19.3455 2.15529 19.3193C2.54871 19.2669 2.9159 19.2406 3.25686 19.2406C3.33554 20.5783 3.5716 21.7323 3.96501 22.7027C4.38466 23.6469 5.02725 24.3813 5.89277 24.9059C6.78452 25.4304 7.92543 25.6927 9.31551 25.6927C11.1252 25.6927 12.4104 25.2993 13.171 24.5124C13.9579 23.6994 14.3513 22.729 14.3513 21.6011C14.3513 20.4471 14.0365 19.5029 13.4071 18.7685C12.7776 18.0079 11.9645 17.3653 10.9679 16.8408C9.97121 16.3162 8.90898 15.8048 7.78118 15.3064C6.67961 14.8081 5.63049 14.2311 4.63383 13.5754C3.63717 12.9197 2.8241 12.1066 2.19463 11.1362C1.56516 10.1395 1.25042 8.8806 1.25042 7.35938C1.25042 5.89061 1.56516 4.63167 2.19463 3.58255C2.85033 2.50721 3.76831 1.69414 4.94856 1.14335C6.12882 0.56634 7.53201 0.277832 9.15815 0.277832C10.0761 0.277832 10.9416 0.356516 11.7547 0.513885C12.594 0.671252 13.3546 0.881075 14.0365 1.14335C14.7185 1.40563 15.2824 1.69414 15.7282 2.00888C15.7282 2.76949 15.7414 3.64812 15.7676 4.64479C15.7938 5.64145 15.8594 6.49386 15.9643 7.20201C15.6758 7.30692 15.3217 7.39872 14.9021 7.4774C14.5086 7.52986 14.1283 7.55609 13.7612 7.55609C13.4989 6.03487 13.1579 4.88084 12.7383 4.094C12.3186 3.30716 11.8072 2.76949 11.2039 2.48098C10.6007 2.16624 9.90564 2.00888 9.1188 2.00888C7.72872 2.00888 6.64026 2.34984 5.85343 3.03177C5.06659 3.71369 4.67317 4.67101 4.67317 5.90373C4.67317 7.05776 4.9879 8.01508 5.61738 8.77569C6.24685 9.5363 7.05991 10.192 8.05657 10.7428C9.05324 11.2936 10.1024 11.8312 11.2039 12.3558C12.3055 12.8541 13.3546 13.4311 14.3513 14.0868C15.3479 14.7163 16.161 15.5032 16.7905 16.4474C17.4199 17.3916 17.7347 18.5849 17.7347 20.0275C17.7347 21.3389 17.4199 22.5716 16.7905 23.7256C16.161 24.8796 15.1906 25.8107 13.8792 26.5189C12.5678 27.227 10.863 27.5811 8.76473 27.5811Z" fill="black"/>
<path d="M24.3739 27.6205C23.5346 27.6205 22.8789 27.3844 22.4068 26.9123C21.9347 26.4402 21.6987 25.837 21.6987 25.1026C21.6987 24.3682 21.961 23.7387 22.4855 23.2142C23.0363 22.6896 23.7314 22.4273 24.5706 22.4273C25.3837 22.4273 26.0132 22.7027 26.4591 23.2535C26.9312 23.7781 27.1672 24.3157 27.1672 24.8665C27.1672 25.8107 26.8787 26.5058 26.3017 26.9516C25.7509 27.3975 25.1083 27.6205 24.3739 27.6205Z" fill="black"/>
</svg>
